<?xml version="1.0" standalone="no"?>
<!DOCTYPE svg PUBLIC "-//W3C//DTD SVG 20010904//EN"
 "http://www.w3.org/TR/2001/REC-SVG-20010904/DTD/svg10.dtd">
<svg version="1.0" xmlns="http://www.w3.org/2000/svg"
 width="4096.000000pt" height="3529.000000pt" viewBox="0 0 4096.000000 3529.000000"
 preserveAspectRatio="xMidYMid meet">

<g transform="translate(0.000000,3529.000000) scale(0.100000,-0.100000)"
fill="#000000" stroke="none">
<path d="M13305 31994 c-188 -25 -366 -79 -515 -155 -512 -261 -828 -715 -900
-1289 -14 -113 -14 -8515 0 -8648 21 -196 73 -379 158 -549 224 -453 617 -754
1142 -875 92 -21 116 -22 860 -25 420 -2 774 -2 787 2 12 3 31 17 40 32 17 26
18 212 23 3658 l5 3630 27 108 c128 511 499 905 988 1049 190 56 -104 51 3835
57 2023 4 3628 10 3638 15 47 23 47 19 47 773 0 444 -4 742 -11 798 -45 377
-212 711 -487 977 -228 220 -516 367 -852 435 -79 16 -364 17 -4385 19 -3587
2 -4317 0 -4400 -12z"/>
<path d="M26094 26406 c-17 -8 -35 -22 -40 -32 -5 -11 -11 -1527 -14 -3639
l-6 -3620 -22 -96 c-89 -387 -297 -697 -606 -902 -150 -100 -286 -160 -466
-205 l-105 -27 -3620 -5 -3620 -5 -36 -23 c-71 -43 -69 -24 -69 -755 0 -649 6
-811 36 -954 68 -330 206 -585 449 -828 143 -144 249 -222 411 -303 205 -103
400 -155 641 -172 101 -8 1496 -10 4363 -8 3976 3 4220 4 4310 21 404 75 737
258 977 539 196 229 326 506 380 809 17 100 18 272 18 4419 0 4727 4 4384 -60
4610 -42 145 -81 239 -151 362 -262 464 -729 766 -1263 818 -58 6 -399 10
-790 10 -553 -1 -692 -3 -717 -14z"/>
<path d="M18980 26390 c-339 -27 -646 -149 -910 -361 -257 -206 -453 -508
-539 -827 -59 -219 -54 -37 -58 -2454 l-3 -2218 34 -37 34 -38 2254 0 c2145 0
2258 1 2348 18 219 43 467 149 645 277 50 35 142 116 205 180 238 237 391 532
453 873 l22 122 0 2196 c0 1792 -2 2200 -13 2220 -31 58 130 54 -2217 55
-1188 1 -2203 -2 -2255 -6z"/>
<path d="M15645 12433 c-16 -2 -86 -10 -155 -19 -668 -81 -1293 -410 -1699
-893 -302 -361 -479 -754 -557 -1238 -21 -136 -30 -517 -15 -680 54 -569 257
-1030 646 -1467 166 -185 443 -393 701 -524 209 -106 373 -166 615 -227 239
-60 410 -79 744 -79 354 0 532 19 800 89 436 113 800 308 1104 591 86 79 223
233 219 245 -2 5 -64 63 -138 131 -516 468 -732 663 -738 665 -4 2 -68 -57
-142 -130 -198 -194 -355 -294 -580 -367 -205 -68 -459 -88 -685 -55 -594 86
-1012 492 -1121 1090 -26 143 -26 471 0 610 51 272 175 527 343 706 267 283
691 433 1124 398 150 -12 212 -24 334 -64 222 -72 416 -197 604 -386 l120
-122 108 100 c59 54 248 224 418 378 171 153 321 288 334 301 l24 23 -42 55
c-67 87 -255 263 -386 361 -364 274 -814 443 -1332 499 -129 15 -557 20 -648
9z"/>
<path d="M8030 9870 l0 -2470 1438 0 c1634 0 1697 2 2032 72 538 112 925 364
1107 721 159 314 164 769 12 1105 -51 114 -137 233 -248 343 -137 136 -275
227 -460 303 l-81 33 78 46 c212 126 360 286 461 498 110 230 143 459 105 718
-37 257 -138 448 -333 634 -244 232 -576 370 -1061 440 -141 20 -183 21 -1597
24 l-1453 4 0 -2471z m2450 1460 c369 -27 555 -152 592 -400 37 -248 -96 -440
-352 -509 -133 -36 -229 -41 -777 -41 l-533 0 0 480 0 480 468 0 c257 0 528
-5 602 -10z m297 -1930 c189 -24 328 -78 412 -161 148 -146 173 -415 55 -595
-65 -98 -160 -155 -344 -207 -72 -20 -100 -21 -782 -24 l-708 -4 0 501 0 500
643 0 c378 0 676 -4 724 -10z"/>
<path d="M18680 9870 l0 -2470 700 0 700 0 0 644 0 644 573 5 c439 4 599 8
687 20 354 48 574 109 825 232 220 107 355 204 521 377 299 311 446 701 446
1183 0 252 -24 411 -92 616 -197 595 -706 1005 -1435 1158 -268 56 -226 55
-1627 58 l-1298 4 0 -2471z m2470 1346 c267 -61 439 -195 523 -406 35 -89 48
-170 48 -299 0 -140 -20 -235 -71 -338 -73 -148 -192 -253 -355 -312 -164 -59
-203 -63 -732 -68 l-483 -5 0 727 0 726 498 -4 c425 -3 508 -6 572 -21z"/>
<path d="M26570 9870 l0 -2470 700 0 700 0 0 2470 0 2470 -700 0 -700 0 0
-2470z"/>
<path d="M28500 11790 l0 -550 760 0 760 0 0 -1920 0 -1920 700 0 700 0 2
1918 3 1917 753 3 752 2 0 550 0 550 -2215 0 -2215 0 0 -550z"/>
<path d="M23680 9415 l0 -515 1030 0 1030 0 0 515 0 515 -1030 0 -1030 0 0
-515z"/>
<path d="M7850 5512 c-95 -52 -107 -165 -26 -241 39 -37 128 -41 176 -9 88 59
92 187 7 243 -40 26 -116 29 -157 7z"/>
<path d="M19960 5512 c-73 -40 -100 -122 -64 -198 49 -102 214 -99 266 6 34
66 14 146 -45 185 -40 26 -116 29 -157 7z"/>
<path d="M23825 5516 c-54 -23 -85 -70 -85 -127 0 -94 55 -149 146 -149 66 0
110 28 136 87 35 79 5 156 -72 187 -48 19 -84 20 -125 2z"/>
<path d="M34260 5512 c-56 -31 -83 -77 -78 -138 7 -85 62 -134 151 -134 140 0
200 188 84 265 -40 26 -116 29 -157 7z"/>
<path d="M28940 4620 l0 -870 110 0 110 0 0 870 0 870 -110 0 -110 0 0 -870z"/>
<path d="M3280 4574 l0 -825 488 4 c540 4 558 6 698 73 172 81 253 239 226
435 -21 146 -92 244 -224 308 -74 36 -76 39 -53 49 72 33 155 141 180 237 49
192 -27 375 -192 459 -141 71 -274 86 -770 86 l-353 0 0 -826z m843 621 c187
-33 282 -153 247 -310 -14 -64 -42 -105 -99 -143 -82 -55 -135 -62 -465 -62
l-296 0 0 258 c0 142 3 262 7 265 13 14 525 7 606 -8z m151 -734 c52 -17 80
-34 115 -69 52 -53 71 -101 71 -184 0 -103 -39 -172 -120 -213 -100 -51 -138
-55 -497 -55 l-333 0 0 268 c0 148 3 272 8 276 4 4 160 6 347 4 320 -4 344 -6
409 -27z"/>
<path d="M18978 5133 l-3 -138 -107 -3 -108 -3 0 -89 0 -90 110 0 110 0 0
-389 c0 -360 1 -394 20 -453 46 -150 176 -230 373 -230 94 0 195 27 241 63 28
22 28 19 -17 121 l-26 57 -44 -25 c-29 -15 -68 -27 -109 -31 -85 -8 -145 17
-185 78 l-28 43 -3 383 -3 383 181 0 180 0 0 90 0 90 -180 0 -180 0 0 140 0
140 -110 0 -109 0 -3 -137z"/>
<path d="M24468 5133 l-3 -138 -107 -3 -108 -3 0 -89 0 -90 110 0 110 0 0
-389 c0 -360 1 -394 20 -453 46 -150 176 -230 373 -230 94 0 195 27 241 63 28
22 28 19 -17 121 l-26 57 -44 -24 c-96 -54 -230 -40 -281 28 -44 60 -46 82
-46 463 l0 364 180 0 180 0 0 90 0 90 -180 0 -180 0 0 140 0 140 -110 0 -109
0 -3 -137z"/>
<path d="M6940 4999 c-253 -22 -411 -147 -427 -338 -14 -171 65 -281 243 -337
40 -13 134 -35 210 -49 188 -34 246 -52 288 -86 39 -33 53 -76 41 -128 -19
-89 -115 -131 -296 -131 -134 0 -245 25 -356 81 -43 21 -80 35 -84 31 -3 -4
-25 -41 -48 -84 l-41 -76 28 -20 c120 -86 380 -140 582 -121 292 27 451 168
438 388 -11 178 -107 253 -398 311 -213 43 -268 58 -316 85 -65 38 -91 113
-60 173 34 64 94 97 203 111 135 17 307 -13 399 -70 17 -10 34 -19 37 -19 3 0
26 39 52 86 53 99 54 97 -45 135 -126 48 -305 71 -450 58z"/>
<path d="M9040 5000 c-125 -15 -262 -79 -326 -154 l-34 -40 0 92 0 92 -105 0
-105 0 0 -620 0 -620 110 0 110 0 0 355 c0 385 4 426 53 518 51 97 137 154
269 178 78 14 186 1 246 -30 52 -27 107 -87 134 -146 23 -49 23 -56 26 -462
l3 -413 114 0 115 0 0 388 c-1 440 -7 502 -65 618 -90 183 -293 273 -545 244z"/>
<path d="M10496 4998 c-200 -22 -378 -149 -465 -331 -54 -113 -66 -172 -65
-307 1 -94 6 -130 28 -196 78 -242 279 -395 555 -423 208 -22 412 38 533 156
43 41 43 41 -30 122 l-48 54 -62 -46 c-83 -61 -157 -87 -262 -94 -106 -7 -186
8 -270 49 -114 56 -203 170 -217 279 l-6 39 508 0 508 0 -5 108 c-19 389 -308
632 -702 590z m175 -188 c80 -15 137 -47 205 -114 60 -60 91 -119 107 -203 l7
-33 -402 0 -401 0 7 43 c10 68 62 161 114 208 105 93 224 125 363 99z"/>
<path d="M11830 5000 c-146 -14 -243 -53 -326 -132 -73 -69 -99 -130 -99 -238
0 -73 4 -93 28 -142 60 -122 154 -165 502 -228 141 -26 191 -45 228 -89 47
-57 29 -153 -37 -196 -44 -29 -128 -45 -236 -45 -128 0 -239 25 -347 77 -43
21 -82 38 -86 38 -4 0 -28 -37 -52 -83 l-44 -82 42 -27 c200 -126 591 -153
802 -54 136 63 205 165 205 302 0 95 -19 152 -68 202 -75 77 -136 100 -421
157 -175 35 -213 49 -258 92 -84 81 -32 204 105 244 91 27 256 22 357 -11 44
-14 95 -35 114 -46 19 -11 37 -16 42 -12 10 11 89 156 89 165 0 25 -206 93
-312 103 -125 11 -154 12 -228 5z"/>
<path d="M13010 5000 c-85 -8 -175 -32 -234 -62 -60 -31 -133 -105 -163 -166
-23 -48 -27 -69 -27 -142 0 -74 4 -94 27 -143 59 -120 151 -162 502 -227 142
-26 187 -44 225 -86 23 -27 30 -44 30 -77 0 -114 -95 -167 -300 -167 -129 0
-244 26 -350 78 -41 20 -78 38 -82 40 -3 2 -26 -36 -51 -83 l-45 -86 40 -25
c171 -108 506 -149 718 -88 132 38 242 126 274 221 20 59 21 178 1 234 -9 24
-33 61 -53 82 -74 77 -134 99 -420 157 -181 36 -222 51 -261 95 -78 90 -29
201 107 241 91 27 256 22 357 -11 44 -14 95 -35 114 -46 19 -11 37 -16 42 -12
10 11 89 156 89 165 0 25 -206 93 -312 103 -125 11 -154 12 -228 5z"/>
<path d="M14966 4999 c-385 -39 -633 -387 -551 -773 56 -266 276 -457 556
-484 210 -21 375 26 496 141 49 47 100 114 92 121 -2 2 -40 26 -83 54 l-80 50
-44 -49 c-78 -87 -176 -129 -303 -129 -270 0 -454 225 -418 512 29 231 219
382 462 365 104 -7 186 -46 255 -121 l49 -54 74 49 c41 27 79 50 84 52 17 6
-17 58 -76 117 -119 117 -301 170 -513 149z"/>
<path d="M16283 4998 c-261 -26 -472 -207 -538 -463 -20 -77 -20 -252 0 -330
65 -254 278 -437 542 -463 178 -18 333 17 463 103 90 60 151 130 201 230 123
249 80 553 -106 741 -145 146 -328 205 -562 182z m282 -232 c150 -74 227 -210
226 -401 -1 -256 -173 -434 -422 -435 -198 0 -351 123 -404 327 -49 188 30
400 182 490 82 48 149 64 251 59 82 -3 101 -7 167 -40z"/>
<path d="M17920 4999 c-136 -15 -242 -62 -324 -145 l-46 -46 0 91 0 91 -105 0
-105 0 0 -620 0 -620 109 0 110 0 3 383 c3 370 4 384 26 439 67 166 235 257
425 230 138 -20 209 -75 259 -201 21 -54 22 -71 26 -453 l4 -398 110 0 109 0
-4 428 c-4 468 -5 473 -67 591 -36 67 -101 133 -170 174 -82 48 -230 71 -360
56z"/>
<path d="M21150 5000 c-125 -15 -262 -79 -326 -154 l-34 -40 0 92 0 92 -105 0
-105 0 0 -620 0 -620 109 0 110 0 3 388 c3 357 5 391 23 435 49 119 140 193
274 223 65 15 88 16 155 6 121 -18 201 -76 250 -181 20 -44 21 -64 24 -458 l3
-413 115 0 116 0 -4 423 c-4 360 -7 431 -22 481 -73 253 -289 381 -586 346z"/>
<path d="M27910 5000 c-119 -15 -248 -78 -315 -153 l-45 -49 0 96 0 96 -110 0
-110 0 0 -850 0 -850 115 0 115 0 0 321 0 321 62 -58 c78 -71 159 -109 279
-130 323 -55 622 136 704 451 19 74 22 248 6 330 -19 91 -83 215 -147 284
-138 150 -339 219 -554 191z m191 -206 c252 -74 373 -376 252 -631 -75 -158
-225 -242 -411 -230 -103 6 -194 47 -264 119 -81 83 -117 183 -118 324 0 139
45 245 143 334 39 36 126 81 176 91 65 12 166 9 222 -7z"/>
<path d="M29955 5000 c-144 -12 -276 -55 -368 -118 l-47 -33 21 -42 c12 -23
32 -61 46 -84 l24 -42 42 28 c99 65 224 101 353 101 213 0 321 -89 332 -272
l5 -78 -239 0 c-258 0 -333 -10 -428 -53 -103 -48 -163 -126 -186 -245 -22
-111 11 -220 90 -298 89 -89 196 -125 365 -125 167 0 291 41 368 124 l37 40 0
-76 0 -77 111 0 111 0 -4 433 c-4 369 -7 441 -22 491 -69 242 -281 355 -611
326z m405 -793 c0 -88 -2 -96 -31 -140 -76 -114 -192 -164 -365 -155 -100 5
-154 26 -197 78 -67 79 -52 213 29 266 52 35 113 43 342 43 l222 1 0 -93z"/>
<path d="M31585 4999 c-127 -14 -228 -61 -317 -147 l-48 -46 0 92 0 92 -105 0
-105 0 0 -620 0 -620 110 0 110 0 0 338 c0 360 7 435 46 517 29 63 107 138
169 165 163 70 364 36 450 -77 66 -87 68 -103 73 -545 l3 -398 110 0 109 0 0
403 c0 316 -4 417 -15 472 -57 269 -278 409 -590 374z"/>
<path d="M33190 4999 c-128 -15 -257 -75 -324 -149 l-36 -40 0 90 0 90 -110 0
-110 0 0 -620 0 -620 114 0 115 0 3 388 c3 376 4 389 26 443 47 117 154 198
295 221 183 30 339 -54 387 -210 19 -59 20 -93 20 -453 l0 -389 116 0 116 0
-5 418 c-4 452 -7 473 -64 592 -85 175 -299 269 -543 239z"/>
<path d="M35450 5000 c-126 -15 -262 -80 -326 -154 l-34 -40 0 92 0 92 -105 0
-105 0 0 -620 0 -620 110 0 110 0 0 355 c0 385 4 426 53 518 50 95 135 152
263 177 68 13 172 2 238 -25 56 -23 121 -89 147 -148 24 -52 24 -55 27 -464
l3 -413 115 0 116 0 -4 423 c-4 356 -7 431 -21 480 -49 169 -152 278 -307 325
-79 24 -193 33 -280 22z"/>
<path d="M36903 5000 c-246 -37 -425 -179 -500 -397 -23 -68 -27 -94 -27 -198
0 -104 4 -130 27 -198 73 -212 227 -344 458 -392 198 -42 408 9 548 131 l53
47 -7 -109 c-16 -233 -81 -332 -255 -390 -77 -25 -281 -26 -365 -1 -104 31
-188 68 -239 104 -26 19 -52 31 -56 26 -4 -4 -28 -41 -54 -82 -43 -71 -45 -76
-29 -94 29 -32 134 -85 228 -116 120 -39 257 -55 408 -48 352 16 533 173 577
500 6 47 10 308 10 643 l0 564 -105 0 -105 0 0 -90 c0 -88 -9 -110 -29 -72
-17 31 -113 99 -177 125 -110 44 -255 63 -361 47z m246 -201 c123 -28 240
-127 281 -236 85 -227 -24 -467 -247 -544 -106 -36 -278 -22 -384 31 -55 29
-126 107 -162 179 -30 63 -32 71 -32 181 0 105 3 120 28 172 51 104 153 184
272 214 62 15 185 17 244 3z"/>
<path d="M5022 4563 c4 -471 5 -471 71 -596 53 -101 175 -188 302 -217 69 -16
229 -16 295 -1 87 21 179 71 237 129 l53 52 0 -90 0 -90 105 0 105 0 0 620 0
620 -109 0 -110 0 -3 -382 c-3 -373 -4 -385 -26 -441 -68 -169 -228 -254 -426
-226 -126 17 -200 77 -248 199 -21 53 -22 71 -26 453 l-4 397 -110 0 -109 0 3
-427z"/>
<path d="M7810 4370 l0 -620 110 0 110 0 0 620 0 620 -110 0 -110 0 0 -620z"/>
<path d="M19920 4370 l0 -620 110 0 110 0 0 620 0 620 -110 0 -110 0 0 -620z"/>
<path d="M22170 4588 c0 -435 5 -487 54 -594 33 -71 112 -154 185 -192 85 -46
161 -63 281 -63 169 -1 277 39 382 139 l58 55 0 -91 0 -92 105 0 105 0 0 620
0 620 -109 0 -109 0 -4 -372 c-4 -353 -5 -377 -26 -438 -48 -140 -144 -218
-298 -239 -183 -26 -317 41 -376 188 -22 54 -23 69 -26 459 l-3 402 -110 0
-109 0 0 -402z"/>
<path d="M23770 4370 l0 -620 115 0 115 0 0 620 0 620 -115 0 -115 0 0 -620z"/>
<path d="M25173 4978 c3 -7 125 -283 271 -613 146 -330 266 -608 266 -618 0
-25 -66 -154 -103 -201 -39 -49 -97 -76 -167 -76 -73 0 -119 14 -178 54 l-49
33 -47 -80 -46 -80 20 -22 c12 -13 53 -37 91 -55 60 -28 85 -33 173 -37 78 -4
116 -2 161 11 116 33 210 118 275 246 28 56 640 1438 640 1446 0 2 -48 4 -107
4 l-108 0 -214 -495 c-118 -273 -216 -494 -218 -491 -2 2 -100 223 -217 492
l-214 489 -117 3 c-92 2 -116 0 -112 -10z"/>
<path d="M34220 4370 l0 -620 110 0 110 0 0 620 0 620 -110 0 -110 0 0 -620z"/>
</g>
</svg>
